<svg id="_ÎÓÈ_1" data-name="—ÎÓÈ_1" xmlns="http://www.w3.org/2000/svg" viewBox="0 0 960 251.14"><defs><style>.cls-1{fill:#d5e5f1;}</style></defs><polygon class="cls-1" points="941.79 166.27 812.52 186.73 800.69 151.24 814.94 151.24 791.17 79.92 799.28 79.92 783.61 32.92 767.95 79.92 776.06 79.92 752.28 151.24 766.53 151.24 756.14 182.43 730.3 179.24 533.77 169.26 426.02 182.23 277.38 166.27 197.43 174.71 192.44 159.75 203.35 159.75 186.29 108.57 203.35 108.57 181.11 41.87 189.39 41.87 175.44 0 161.48 41.87 169.76 41.87 147.52 108.57 164.58 108.57 147.52 159.75 158.44 159.75 151.84 179.52 97.81 185.22 0 186.03 0 251.14 960 251.14 960 177.81 941.79 166.27"/></svg>