<?xml version="1.0" encoding="utf-8"?>
<!-- Generator: Adobe Illustrator 26.0.1, SVG Export Plug-In . SVG Version: 6.00 Build 0)  -->
<svg version="1.1" id="_ÎÓÈ_1" xmlns="http://www.w3.org/2000/svg" xmlns:xlink="http://www.w3.org/1999/xlink" x="0px" y="0px"
	 viewBox="0 0 960 302.5" style="enable-background:new 0 0 960 302.5;" xml:space="preserve">
<style type="text/css">
	.st0{fill:#FFFFFF;}
</style>
<polygon class="st0" points="938,252.1 890.6,259.6 889.1,259.3 874.1,214.1 895.7,214.1 878.6,162.9 895.7,162.9 864,67.7 
	873.1,67.7 850.6,0 828,67.7 837.2,67.7 805.5,162.9 822.5,162.9 805.5,214.1 827.1,214.1 816.5,246 617.9,239.6 342.6,257.6 
	290.7,264.6 164,249.6 158,250.3 145,211.2 165.2,211.2 149.3,163.4 165.2,163.4 135.6,74.7 144.1,74.7 123.1,11.6 102.1,74.7 
	110.6,74.7 81.1,163.4 97,163.4 81.1,211.2 101.2,211.2 85.4,258.7 0,268.5 0,302.5 960,302.5 960,259.2 944.9,254.5 "/>
</svg>
