<svg id="_ÎÓÈ_1" data-name="—ÎÓÈ_1" xmlns="http://www.w3.org/2000/svg" viewBox="0 0 960 188.79"><defs><style>.cls-1{fill:#96bedc;}</style></defs><polygon class="cls-1" points="936.27 123.2 928.02 98.47 937.97 98.47 930.12 74.91 937.97 74.91 923.38 31.13 927.6 31.13 917.22 0 906.85 31.13 911.07 31.13 896.47 74.91 904.32 74.91 896.47 98.47 906.42 98.47 898.18 123.2 61.39 123.2 52.51 96.54 63.89 96.54 44.9 39.57 51.38 39.57 38.86 2.04 26.35 39.57 32.83 39.57 13.84 96.54 25.22 96.54 16.33 123.2 0 126.65 0 188.79 960 188.79 960 133.74 936.27 123.2"/></svg>