<svg id="_ÎÓÈ_1" data-name="—ÎÓÈ_1" xmlns="http://www.w3.org/2000/svg" viewBox="0 0 960 302.55"><defs><style>.cls-1{fill:#fff;}</style></defs><polygon class="cls-1" points="893.14 254.47 881.11 218.35 901.63 218.35 867.39 115.64 879.07 115.64 856.51 47.96 833.95 115.64 845.63 115.64 811.39 218.35 831.91 218.35 820.69 252.03 726.64 259.58 725.22 259.32 710.14 214.1 731.78 214.1 714.71 162.89 731.78 162.89 700.04 67.68 709.22 67.68 686.67 0 664.11 67.68 673.29 67.68 641.55 162.89 658.62 162.89 641.55 214.1 663.19 214.1 652.56 245.99 617.9 239.63 342.56 257.59 290.68 264.57 163.98 249.61 158.04 250.29 145 211.2 165.18 211.2 149.26 163.45 165.18 163.45 135.59 74.68 144.15 74.68 123.11 11.59 102.08 74.68 110.64 74.68 81.05 163.45 96.97 163.45 81.05 211.2 101.22 211.2 85.39 258.69 0 268.55 0 302.55 960 302.55 960 259.19 893.14 254.47"/></svg>